<?xml version="1.0" encoding="UTF-8" standalone="no"?>
<svg
   xmlns:dc="http://purl.org/dc/elements/1.1/"
   xmlns:cc="http://creativecommons.org/ns#"
   xmlns:rdf="http://www.w3.org/1999/02/22-rdf-syntax-ns#"
   xmlns:svg="http://www.w3.org/2000/svg"
   xmlns="http://www.w3.org/2000/svg"
   xmlns:xlink="http://www.w3.org/1999/xlink"
   xmlns:sodipodi="http://sodipodi.sourceforge.net/DTD/sodipodi-0.dtd"
   xmlns:inkscape="http://www.inkscape.org/namespaces/inkscape"
   width="175mm"
   height="175mm"
   viewBox="0 0 175 175"
   version="1.1"
   id="svg8"
   inkscape:version="1.0.1 (3bc2e813f5, 2020-09-07)"
   sodipodi:docname="ecole.svg"
   inkscape:export-filename="C:\Users\ilefevre\Documents\Cmonsite\Pictos Accès direct\Recadré\jeunesse_adolescents.png"
   inkscape:export-xdpi="58.057144"
   inkscape:export-ydpi="58.057144">
  <defs
     id="defs2">
    <linearGradient
       id="ac3cc305-f6db-42f4-bbbd-32121ee27a74"
       x1="403.57"
       y1="833.5"
       x2="403.57"
       y2="218.16"
       gradientUnits="userSpaceOnUse">
      <stop
         offset="0"
         stop-color="gray"
         stop-opacity="0.25"
         id="stop994" />
      <stop
         offset="0.54"
         stop-color="gray"
         stop-opacity="0.12"
         id="stop996" />
      <stop
         offset="1"
         stop-color="gray"
         stop-opacity="0.1"
         id="stop998" />
    </linearGradient>
    <linearGradient
       id="ad14f186-b27f-416c-b629-0bafa2f1236e"
       x1="940.67"
       y1="825.72"
       x2="940.67"
       y2="263.72"
       xlink:href="#ac3cc305-f6db-42f4-bbbd-32121ee27a74" />
    <linearGradient
       id="ad14f186-b27f-416c-b629-0bafa2f1236e-4"
       x1="940.67"
       y1="825.72"
       x2="940.67"
       y2="263.72"
       xlink:href="#ac3cc305-f6db-42f4-bbbd-32121ee27a74" />
    <linearGradient
       id="f98c7255-8898-49c2-b340-75dadcc4ae5e"
       x1="819.93"
       y1="598.64"
       x2="819.93"
       y2="132.32"
       gradientUnits="userSpaceOnUse">
      <stop
         offset="0"
         stop-color="gray"
         stop-opacity="0.25"
         id="stop3105" />
      <stop
         offset="0.54"
         stop-color="gray"
         stop-opacity="0.12"
         id="stop3107" />
      <stop
         offset="1"
         stop-color="gray"
         stop-opacity="0.1"
         id="stop3109" />
    </linearGradient>
    <linearGradient
       id="92d33834-2d44-41fb-b7c9-5faa6db61f67"
       x1="855.68"
       y1="218.69"
       x2="855.68"
       y2="216.24"
       xlink:href="#f98c7255-8898-49c2-b340-75dadcc4ae5e" />
    <linearGradient
       id="2353f27f-2b2f-460e-adf7-0d1e44be71db"
       x1="476.17"
       y1="658.02"
       x2="476.17"
       y2="395.19"
       gradientTransform="rotate(90,629.01,560.64)"
       xlink:href="#f98c7255-8898-49c2-b340-75dadcc4ae5e" />
    <linearGradient
       id="4f6991c1-2d70-49f7-ad45-4cbe0a2e669a"
       x1="476.5"
       y1="725.77"
       x2="476.5"
       y2="463.92"
       gradientTransform="rotate(90,643.61,568.06)"
       xlink:href="#f98c7255-8898-49c2-b340-75dadcc4ae5e" />
    <linearGradient
       id="0ab0c4d5-5a87-488b-b190-408bea02e292"
       x1="456.74"
       y1="719.17"
       x2="456.74"
       y2="457.32"
       gradientTransform="rotate(90,617.54,562.87)"
       xlink:href="#f98c7255-8898-49c2-b340-75dadcc4ae5e" />
    <linearGradient
       id="7820c60a-6dd2-4e9e-820c-a335a5d419d8"
       x1="450.43"
       y1="726.27"
       x2="450.43"
       y2="464.42"
       gradientTransform="translate(123.74,-187.29)"
       xlink:href="#f98c7255-8898-49c2-b340-75dadcc4ae5e" />
    <linearGradient
       id="2438f751-850d-4f24-a458-729e3ad7bb58"
       x1="1003.59"
       y1="245.51"
       x2="1003.59"
       y2="74.84"
       gradientTransform="rotate(90,999.905,155.125)"
       xlink:href="#f98c7255-8898-49c2-b340-75dadcc4ae5e" />
    <linearGradient
       id="68c414b5-14a5-48aa-8252-53bc3664f500"
       x1="864.79"
       y1="849.53"
       x2="864.79"
       y2="427.42"
       xlink:href="#f98c7255-8898-49c2-b340-75dadcc4ae5e" />
    <linearGradient
       id="dcdd7e1b-93ae-4349-854b-9912b47642c8"
       x1="513.67"
       y1="843.12"
       x2="513.67"
       y2="56.12"
       gradientUnits="userSpaceOnUse">
      <stop
         offset="0"
         stop-color="gray"
         stop-opacity="0.25"
         id="stop4913" />
      <stop
         offset="0.54"
         stop-color="gray"
         stop-opacity="0.12"
         id="stop4915" />
      <stop
         offset="1"
         stop-color="gray"
         stop-opacity="0.1"
         id="stop4917" />
    </linearGradient>
    <linearGradient
       id="1e2c0012-142b-4e80-b266-1fa459546aa8"
       x1="567.33"
       y1="839.89"
       x2="567.33"
       y2="127.09"
       gradientUnits="userSpaceOnUse">
      <stop
         offset="0"
         stop-color="gray"
         stop-opacity="0.25"
         id="stop5769" />
      <stop
         offset="0.54"
         stop-color="gray"
         stop-opacity="0.12"
         id="stop5771" />
      <stop
         offset="1"
         stop-color="gray"
         stop-opacity="0.1"
         id="stop5773" />
    </linearGradient>
    <linearGradient
       id="96fd64a0-6351-4330-b812-2613840b356c"
       x1="625.32"
       y1="588.18"
       x2="625.32"
       y2="218.67"
       gradientUnits="userSpaceOnUse">
      <stop
         offset="0"
         stop-color="gray"
         stop-opacity="0.25"
         id="stop9059" />
      <stop
         offset="0.54"
         stop-color="gray"
         stop-opacity="0.12"
         id="stop9061" />
      <stop
         offset="1"
         stop-color="gray"
         stop-opacity="0.1"
         id="stop9063" />
    </linearGradient>
    <linearGradient
       id="65aaeda9-82be-4b39-9919-e403ba36e3f2"
       x1="933.17"
       y1="777.5"
       x2="933.17"
       y2="311.68"
       xlink:href="#96fd64a0-6351-4330-b812-2613840b356c" />
    <linearGradient
       id="05d1d1fb-9375-46f7-a562-a16a81ed75db"
       x1="187.32"
       y1="814.44"
       x2="187.32"
       y2="271.29"
       xlink:href="#96fd64a0-6351-4330-b812-2613840b356c" />
    <linearGradient
       id="1e2c0012-142b-4e80-b266-1fa459546aa8-6"
       x1="567.33"
       y1="839.89"
       x2="567.33"
       y2="127.09"
       gradientUnits="userSpaceOnUse">
      <stop
         offset="0"
         stop-color="gray"
         stop-opacity="0.25"
         id="stop9825" />
      <stop
         offset="0.54"
         stop-color="gray"
         stop-opacity="0.12"
         id="stop9827" />
      <stop
         offset="1"
         stop-color="gray"
         stop-opacity="0.1"
         id="stop9829" />
    </linearGradient>
    <linearGradient
       id="b7709055-0dd4-48d6-ac10-5a758f15d1a1"
       x1="443.56"
       y1="792.13"
       x2="443.56"
       y2="251.5"
       gradientUnits="userSpaceOnUse">
      <stop
         offset="0"
         stop-color="gray"
         stop-opacity="0.25"
         id="stop10281" />
      <stop
         offset="0.54"
         stop-color="gray"
         stop-opacity="0.12"
         id="stop10283" />
      <stop
         offset="1"
         stop-color="gray"
         stop-opacity="0.1"
         id="stop10285" />
    </linearGradient>
    <linearGradient
       id="f59ba046-7ebe-407e-be3d-c62856fc1078"
       x1="712"
       y1="788.54"
       x2="712"
       y2="248.5"
       xlink:href="#b7709055-0dd4-48d6-ac10-5a758f15d1a1" />
    <linearGradient
       inkscape:collect="always"
       xlink:href="#b7709055-0dd4-48d6-ac10-5a758f15d1a1"
       id="linearGradient10596"
       gradientUnits="userSpaceOnUse"
       x1="443.56"
       y1="792.13"
       x2="443.56"
       y2="251.5" />
  </defs>
  <sodipodi:namedview
     id="base"
     pagecolor="#ffffff"
     bordercolor="#666666"
     borderopacity="1.0"
     inkscape:pageopacity="0.0"
     inkscape:pageshadow="2"
     inkscape:zoom="0.96157143"
     inkscape:cx="503.39548"
     inkscape:cy="408.57227"
     inkscape:document-units="mm"
     inkscape:current-layer="layer4"
     inkscape:document-rotation="0"
     showgrid="false"
     inkscape:window-width="1920"
     inkscape:window-height="1018"
     inkscape:window-x="-8"
     inkscape:window-y="-8"
     inkscape:window-maximized="1"
     showguides="true"
     inkscape:guide-bbox="true">
    <sodipodi:guide
       position="87.554499,163.32607"
       orientation="1,0"
       id="guide1564" />
    <sodipodi:guide
       position="87.263504,87.834639"
       orientation="0,-1"
       id="guide1566" />
  </sodipodi:namedview>
  <metadata
     id="metadata5">
    <rdf:RDF>
      <cc:Work
         rdf:about="">
        <dc:format>image/svg+xml</dc:format>
        <dc:type
           rdf:resource="http://purl.org/dc/dcmitype/StillImage" />
        <dc:title></dc:title>
      </cc:Work>
    </rdf:RDF>
  </metadata>
  <g
     inkscape:groupmode="layer"
     id="layer4"
     inkscape:label="Calque 4"
     style="display:inline">
    <path
       style="fill:none;stroke:none;stroke-width:0.264583px;stroke-linecap:butt;stroke-linejoin:miter;stroke-opacity:1"
       d="m 86.328056,0 1.069078,172.12157"
       id="path1562" />
    <g
       id="g10594"
       transform="matrix(0.16051536,0,0,0.16051536,0.71143853,29.039808)">
      <g
         opacity="0.2"
         id="g10307">
        <path
           d="m 433.55,753.92 a 42.59,42.59 0 0 0 2.16,6.52 q 20.85,-8.19 42.16,-15.7 c -0.12,-0.59 -0.24,-1.21 -0.39,-1.82 a 36.92,36.92 0 0 0 -8.86,-16.84 c -5.68,-6 -13,-8.9 -20.12,-7.13 -7.12,1.77 -12.29,7.83 -14.65,15.8 a 37.39,37.39 0 0 0 -0.3,19.17 z"
           transform="translate(-59,-87.5)"
           fill="#3f3d56"
           id="path10293" />
        <ellipse
           cx="446.94"
           cy="712.40997"
           rx="22.639999"
           ry="30.290001"
           transform="rotate(-12.59,20.916663,936.1849)"
           fill="#3f3d56"
           id="ellipse10295" />
        <ellipse
           cx="438.37"
           cy="676.40002"
           rx="22.639999"
           ry="30.290001"
           transform="rotate(-12.59,12.322422,900.14074)"
           fill="#3f3d56"
           id="ellipse10297" />
        <ellipse
           cx="429.79001"
           cy="640.40002"
           rx="22.639999"
           ry="30.290001"
           transform="rotate(-12.59,3.7685065,864.14691)"
           fill="#3f3d56"
           id="ellipse10299" />
        <ellipse
           cx="421.20999"
           cy="604.40002"
           rx="22.639999"
           ry="30.290001"
           transform="rotate(-12.59,-4.8307346,828.14807)"
           fill="#3f3d56"
           id="ellipse10301" />
        <path
           d="M 444.74,337.44 A 111.58,111.58 0 0 0 450,323.06 l -60,4.72 62.54,-15.13 a 113.31,113.31 0 0 0 -1.11,-47.48 112,112 0 0 0 -17.23,-38.43 l -73.2,65.45 63.37,-77.47 c -25.87,-27.62 -65,-40.76 -103.89,-31 -58.11,14.53 -93.72,74.57 -79.54,134.1 a 110.74,110.74 0 0 0 38.39,61 113.13,113.13 0 0 0 -7.33,22.64 L 356.42,422.6 270,415.11 a 113.46,113.46 0 0 0 2.68,36 110.84,110.84 0 0 0 38.4,61 112.85,112.85 0 0 0 -6.64,72.27 c 14.18,59.53 72.78,96 130.89,81.48 58.11,-14.52 93.72,-74.56 79.54,-134.09 a 110.84,110.84 0 0 0 -38.4,-61 112.85,112.85 0 0 0 6.64,-72.27 110.77,110.77 0 0 0 -38.37,-61.06 z"
           transform="translate(-59,-87.5)"
           fill="#00b0ff"
           id="path10303" />
        <path
           d="m 272.7,451.07 a 110.84,110.84 0 0 0 38.4,61 112.85,112.85 0 0 0 -6.64,72.27 c 14.18,59.53 72.78,96 130.89,81.48 58.11,-14.52 93.72,-74.56 79.54,-134.09 a 110.84,110.84 0 0 0 -38.4,-61 C 486.23,448.87 269.82,439 272.7,451.07 Z"
           transform="translate(-59,-87.5)"
           opacity="0.1"
           id="path10305" />
      </g>
      <g
         opacity="0.2"
         id="g10323">
        <path
           d="m 703.24,742.93 a 46.72,46.72 0 0 0 -0.43,7.86 q 26.15,0.42 52.5,1.76 c 0.12,-0.69 0.24,-1.39 0.34,-2.1 a 41.67,41.67 0 0 0 -2.45,-21.73 c -3.62,-8.82 -10.37,-15.13 -18.82,-16.35 -8.45,-1.22 -16.69,2.94 -22.64,10.36 a 41.74,41.74 0 0 0 -8.5,20.2 z"
           transform="translate(-59,-87.5)"
           fill="#3f3d56"
           id="path10309" />
        <ellipse
           cx="735.47998"
           cy="704.75"
           rx="34.66"
           ry="26.48"
           transform="rotate(-81.82,655.52604,695.04698)"
           fill="#3f3d56"
           id="ellipse10311" />
        <ellipse
           cx="741.51001"
           cy="662.82001"
           rx="34.66"
           ry="26.48"
           transform="rotate(-81.82,661.55067,653.11782)"
           fill="#3f3d56"
           id="ellipse10313" />
        <ellipse
           cx="747.53003"
           cy="620.89001"
           rx="34.66"
           ry="26.48"
           transform="rotate(-81.82,667.5753,611.18866)"
           fill="#3f3d56"
           id="ellipse10315" />
        <ellipse
           cx="753.56"
           cy="578.96997"
           rx="34.66"
           ry="26.48"
           transform="rotate(-81.82,673.59993,569.25949)"
           fill="#3f3d56"
           id="ellipse10317" />
        <path
           d="m 892.9,306.12 a 125.32,125.32 0 0 0 11.82,-13 L 837.49,272 l 74.39,11.25 a 127.08,127.08 0 0 0 16.69,-99.12 l -107.36,37.44 101.88,-54.5 A 126.83,126.83 0 1 0 695.57,277.77 127.08,127.08 0 0 0 678,298.6 L 760.71,357.88 670,312.2 a 126.9,126.9 0 0 0 3.26,120.8 126.82,126.82 0 1 0 197.33,28.36 126.84,126.84 0 0 0 22.31,-155.24 z"
           transform="translate(-59,-87.5)"
           fill="#00b0ff"
           id="path10319" />
        <path
           d="M 657.55,351.52 A 126.31,126.31 0 0 0 673.26,433 126.82,126.82 0 1 0 870.59,461.36 C 890.49,442.41 659.58,337.43 657.55,351.52 Z"
           transform="translate(-59,-87.5)"
           opacity="0.1"
           id="path10321" />
      </g>
      <ellipse
         cx="541"
         cy="694"
         rx="541"
         ry="31"
         fill="#00b0ff"
         opacity="0.1"
         id="ellipse10325" />
      <ellipse
         cx="894.70001"
         cy="676.64001"
         rx="25.299999"
         ry="4.8699999"
         fill="#00b0ff"
         id="ellipse10327" />
      <ellipse
         cx="894.28003"
         cy="674.58002"
         rx="2.95"
         ry="3.8599999"
         fill="#3f3d56"
         id="ellipse10329" />
      <ellipse
         cx="894.28003"
         cy="669.85999"
         rx="2.95"
         ry="3.8599999"
         fill="#3f3d56"
         id="ellipse10331" />
      <ellipse
         cx="894.28003"
         cy="665.15002"
         rx="2.95"
         ry="3.8599999"
         fill="#3f3d56"
         id="ellipse10333" />
      <ellipse
         cx="894.28003"
         cy="660.44"
         rx="2.95"
         ry="3.8599999"
         fill="#3f3d56"
         id="ellipse10335" />
      <ellipse
         cx="894.28003"
         cy="655.71997"
         rx="2.95"
         ry="3.8599999"
         fill="#3f3d56"
         id="ellipse10337" />
      <ellipse
         cx="894.28003"
         cy="651.01001"
         rx="2.95"
         ry="3.8599999"
         fill="#3f3d56"
         id="ellipse10339" />
      <ellipse
         cx="894.28003"
         cy="646.29999"
         rx="2.95"
         ry="3.8599999"
         fill="#3f3d56"
         id="ellipse10341" />
      <path
         d="m 964.3,701.55 a 13.58,13.58 0 0 0 1.1,-1.62 l -7.74,-1.27 8.37,0.06 a 14.16,14.16 0 0 0 0.27,-11.18 l -11.23,5.83 10.36,-7.62 a 14.12,14.12 0 1 0 -23.31,15.8 14.43,14.43 0 0 0 -1.61,2.57 l 10,5.22 -10.71,-3.6 a 14.09,14.09 0 0 0 2.32,13.26 14.11,14.11 0 1 0 22.18,0 14.1,14.1 0 0 0 0,-17.44 z"
         transform="translate(-59,-87.5)"
         fill="#00b0ff"
         id="path10343" />
      <path
         d="m 939.1,710.27 a 14.05,14.05 0 0 0 3,8.72 14.11,14.11 0 1 0 22.18,0 c 1.91,-2.4 -25.18,-10.3 -25.18,-8.72 z"
         transform="translate(-59,-87.5)"
         opacity="0.1"
         id="path10345" />
      <ellipse
         cx="313.70001"
         cy="714.17999"
         rx="33.799999"
         ry="6.5"
         fill="#00b0ff"
         id="ellipse10347" />
      <ellipse
         cx="313.13"
         cy="711.41998"
         rx="3.9400001"
         ry="5.1500001"
         fill="#3f3d56"
         id="ellipse10349" />
      <ellipse
         cx="313.13"
         cy="705.12"
         rx="3.9400001"
         ry="5.1500001"
         fill="#3f3d56"
         id="ellipse10351" />
      <ellipse
         cx="313.13"
         cy="698.82001"
         rx="3.9400001"
         ry="5.1500001"
         fill="#3f3d56"
         id="ellipse10353" />
      <ellipse
         cx="313.13"
         cy="692.53003"
         rx="3.9400001"
         ry="5.1500001"
         fill="#3f3d56"
         id="ellipse10355" />
      <ellipse
         cx="313.13"
         cy="686.22998"
         rx="3.9400001"
         ry="5.1500001"
         fill="#3f3d56"
         id="ellipse10357" />
      <ellipse
         cx="313.13"
         cy="679.92999"
         rx="3.9400001"
         ry="5.1500001"
         fill="#3f3d56"
         id="ellipse10359" />
      <ellipse
         cx="313.13"
         cy="673.64001"
         rx="3.9400001"
         ry="5.1500001"
         fill="#3f3d56"
         id="ellipse10361" />
      <path
         d="m 386.87,718.05 a 19.94,19.94 0 0 0 1.46,-2.16 l -10.33,-1.7 11.18,0.09 a 18.84,18.84 0 0 0 0.36,-14.94 l -15,7.78 13.83,-10.12 a 18.85,18.85 0 1 0 -31.14,21.1 19.29,19.29 0 0 0 -2.15,3.44 l 13.43,7 -14.32,-4.8 a 18.89,18.89 0 0 0 3,17.7 18.85,18.85 0 1 0 29.64,0 18.87,18.87 0 0 0 0,-23.31 z"
         transform="translate(-59,-87.5)"
         fill="#00b0ff"
         id="path10363" />
      <path
         d="m 353.2,729.7 a 18.83,18.83 0 0 0 4,11.66 18.85,18.85 0 1 0 29.64,0 c 2.55,-3.21 -33.64,-13.77 -33.64,-11.66 z"
         transform="translate(-59,-87.5)"
         opacity="0.1"
         id="path10365" />
      <path
         d="m 550.66,515.43 c -2.55,-13.34 -5.4,-26.71 -5.87,-40.28 -0.28,-8 0.28,-16.14 -0.75,-24.12 -0.51,-3.92 -1.4,-7.77 -2.28,-11.62 L 538.22,424 a 25.73,25.73 0 0 0 -0.34,-8.87 31,31 0 0 0 -1.41,-4.51 70,70 0 0 0 8.11,-15 c 0.94,-2.4 1.75,-4.95 1.38,-7.49 -0.72,-4.87 -5.44,-8.08 -9.83,-10.48 -2.66,-1.45 -5.46,-2.85 -8.5,-3.08 a 13.81,13.81 0 0 0 -11.2,5 24.33,24.33 0 0 1 0.72,-11.83 c -2.61,-1.17 -5.24,-2.27 -7.89,-3.34 a 72.44,72.44 0 0 1 -0.4,-10.41 c 0.06,-4.17 0.13,-8.38 0.37,-12.56 a 37.1,37.1 0 0 0 24.38,-34.63 c 0,-0.43 0,-0.85 0,-1.27 a 30.08,30.08 0 0 0 2.58,-23.08 c -2.93,-10 -10.59,-18.24 -19.82,-23.33 -9.23,-5.09 -19.93,-7.24 -30.52,-7.62 a 43.91,43.91 0 0 0 -10.62,0.67 51.24,51.24 0 0 0 -10.82,4 c -5.29,2.44 -10.62,5.11 -14.58,9.32 -6.87,7.33 -8.41,18.1 -7.66,28 1,13 5.34,25.58 10.36,37.68 1.67,4 3.45,8.06 6.2,11.47 2.13,2.63 5.83,2.79 8.77,0.95 a 96,96 0 0 0 -0.22,9.6 c -5.43,-0.19 -10.72,0.7 -15.08,3.76 -2,1.43 -3.9,3.68 -3.46,6.1 a 5.67,5.67 0 0 1 5.46,4.85 c 0.22,2.13 -0.85,4.16 -1.89,6 -0.45,0.82 -0.9,1.65 -1.36,2.47 -4.3,4.6 -8.71,10.36 -9.1,16.07 a 20.07,20.07 0 0 0 -2.09,0.31 c -3.9,0.72 -7.78,2.05 -11.61,3.05 l -27.72,7.3 -6.85,1.9 -11,2.9 c -7,1.84 -14.13,3.73 -20.34,7.43 -6.21,3.7 -11.48,9.51 -12.73,16.51 -0.62,3.48 -0.24,7.1 -1,10.55 0,0.16 -0.06,0.31 -0.1,0.46 a 33.75,33.75 0 0 1 -2.55,6.31 c -6.21,13.09 -10.63,27.36 -9.8,41.77 0.51,8.85 3,17.48 5.42,26 q 3.81,13.07 7.52,26.14 a 137.24,137.24 0 0 0 6.19,18.3 70.5,70.5 0 0 0 18.53,24.77 32.72,32.72 0 0 0 7.4,5 26.91,26.91 0 0 0 13,2.11 c 1.2,-0.08 2.38,-0.21 3.55,-0.4 8.59,-1.36 16.6,-5.5 23.95,-10.16 q 4.61,-2.92 9,-6.15 a 57.09,57.09 0 0 0 2,9.92 c 0.65,2.23 1.45,4.52 1.19,6.83 -0.36,3.22 -2.7,5.86 -3.91,8.88 -2.57,6.38 0.07,13.49 0.5,20.33 0.41,6.41 -1.15,12.77 -2.4,19.08 a 199.21,199.21 0 0 0 -3.69,31.92 96.55,96.55 0 0 1 -0.8,12.14 c -0.93,5.68 -3.11,11.16 -3.49,16.9 -0.58,8.94 3.28,17.69 2.93,26.64 -0.41,10.51 -6.58,20.72 -4.43,31 0.27,1.29 1,2.78 2.18,3.11 l -0.58,0.53 c -1.77,1.64 -3.49,4.67 -1.48,6 a 3.93,3.93 0 0 0 1.51,0.52 c 3.11,0.65 6.24,1.24 9.37,1.79 a 29,29 0 0 0 1.08,8.56 c 0.57,0.41 1.15,0.78 1.73,1.13 -0.44,1.18 -0.41,2.32 0.63,3 a 3.93,3.93 0 0 0 1.51,0.52 326.47,326.47 0 0 0 78.35,6.5 c 4.7,-0.18 9.61,-0.52 13.62,-2.92 4.01,-2.4 6.72,-7.51 4.81,-11.72 -1.69,-3.72 -6.11,-5.33 -10.08,-6.57 l -4.66,-1.44 a 8,8 0 0 0 0.42,-7 c -1.69,-3.72 -6.11,-5.33 -10.08,-6.57 l -10.73,-3.33 a 10.53,10.53 0 0 1 -3.9,-1.83 21.18,21.18 0 0 1 -2.12,-2.46 12,12 0 0 0 -5.85,-3.67 45.52,45.52 0 0 1 0.15,-6.82 l 3,-36.21 c 0.67,-8.2 1.33,-16.56 -0.58,-24.57 -0.77,-3.25 -2,-6.58 -1.25,-9.84 1.17,-5.32 6.77,-8.28 10.59,-12.23 5.76,-6 7.55,-14.53 8.87,-22.65 a 457.27,457.27 0 0 0 5.12,-101.41 162,162 0 0 1 36.82,-5.92 c 2.12,-0.09 3.16,-1.09 3.82,-3.07 0.66,-1.98 0.26,-4.13 -0.13,-6.18 z m -59.85,1.77 c 0.07,-0.35 0.15,-0.7 0.21,-1.05 l 0.83,1.06 z"
         transform="translate(-59,-87.5)"
         fill="url(#b7709055-0dd4-48d6-ac10-5a758f15d1a1)"
         id="path10367"
         style="fill:url(#linearGradient10596)" />
      <path
         d="m 471.31,333.65 c -0.26,3.48 -1.49,6.82 -1.94,10.29 -0.51,3.82 -0.06,7.71 -0.31,11.56 -0.25,3.85 -1.36,7.9 -4.29,10.41 a 202.14,202.14 0 0 1 49.92,10.8 c -4.87,-6 -5,-14.38 -4.88,-22.08 0.16,-11.39 0.36,-23 4.08,-33.75 a 82.14,82.14 0 0 0 -33.74,-0.44 c -2.42,0.48 -9.75,0.18 -10.84,2.44 -0.79,1.66 2.18,8.25 2,10.77 z"
         transform="translate(-59,-87.5)"
         fill="#a1616a"
         id="path10369" />
      <path
         d="m 471.31,333.65 c -0.26,3.48 -1.49,6.82 -1.94,10.29 -0.51,3.82 -0.06,7.71 -0.31,11.56 -0.25,3.85 -1.36,7.9 -4.29,10.41 a 202.14,202.14 0 0 1 49.92,10.8 c -4.87,-6 -5,-14.38 -4.88,-22.08 0.16,-11.39 0.36,-23 4.08,-33.75 a 82.14,82.14 0 0 0 -33.74,-0.44 c -2.42,0.48 -9.75,0.18 -10.84,2.44 -0.79,1.66 2.18,8.25 2,10.77 z"
         transform="translate(-59,-87.5)"
         opacity="0.1"
         id="path10371" />
      <path
         d="m 491.47,748.05 a 20.77,20.77 0 0 0 2,2.51 10.06,10.06 0 0 0 3.81,1.83 l 10.48,3.33 c 3.89,1.24 8.21,2.84 9.86,6.56 1.86,4.2 -0.79,9.31 -4.71,11.7 -3.92,2.39 -8.72,2.74 -13.31,2.92 a 313.13,313.13 0 0 1 -76.59,-6.49 4,4 0 0 1 -1.47,-0.52 c -2,-1.35 -0.29,-4.37 1.44,-6 6.75,-6.4 14.09,-13.11 23.28,-14.59 4.83,-0.79 9.68,-0.47 14.48,-1.62 3.45,-0.83 6.71,-2.26 10.15,-3.11 6.41,-1.57 16,-2.13 20.58,3.48 z"
         transform="translate(-59,-87.5)"
         fill="#46455b"
         id="path10373" />
      <path
         d="m 491.47,748.05 a 20.77,20.77 0 0 0 2,2.51 10.06,10.06 0 0 0 3.81,1.83 l 10.48,3.33 c 3.89,1.24 8.21,2.84 9.86,6.56 1.86,4.2 -0.79,9.31 -4.71,11.7 -3.92,2.39 -8.72,2.74 -13.31,2.92 a 313.13,313.13 0 0 1 -76.59,-6.49 4,4 0 0 1 -1.47,-0.52 c -2,-1.35 -0.29,-4.37 1.44,-6 6.75,-6.4 14.09,-13.11 23.28,-14.59 4.83,-0.79 9.68,-0.47 14.48,-1.62 3.45,-0.83 6.71,-2.26 10.15,-3.11 6.41,-1.57 16,-2.13 20.58,3.48 z"
         transform="translate(-59,-87.5)"
         opacity="0.1"
         id="path10375" />
      <path
         d="m 438.85,521.87 a 63.56,63.56 0 0 0 -0.9,42.51 c -3.49,-0.38 -5,4.34 -4.91,7.86 a 58.23,58.23 0 0 0 2.21,14.48 c 0.64,2.24 1.42,4.52 1.17,6.82 -0.36,3.22 -2.64,5.86 -3.83,8.87 -2.5,6.37 0.07,13.47 0.5,20.3 0.4,6.41 -1.13,12.76 -2.36,19.06 a 203.26,203.26 0 0 0 -3.6,31.87 96.14,96.14 0 0 1 -0.79,12.13 c -0.9,5.68 -3,11.15 -3.4,16.88 -0.57,8.92 3.2,17.67 2.86,26.61 -0.4,10.49 -6.44,20.69 -4.33,31 0.3,1.45 1.11,3.16 2.6,3.18 15.08,0.19 29.17,-4 44.09,-1.81 1.52,-34.52 3,-69.2 9.8,-103.09 6,-30.17 16.17,-60 15.22,-90.76 -0.55,-17.59 -4.73,-34.84 -7.27,-52.26 a 68.75,68.75 0 0 0 -47.06,6.35 z"
         transform="translate(-59,-87.5)"
         fill="#bbbdc8"
         id="path10377" />
      <path
         d="m 438.85,521.87 a 63.56,63.56 0 0 0 -0.9,42.51 c -3.49,-0.38 -5,4.34 -4.91,7.86 a 58.23,58.23 0 0 0 2.21,14.48 c 0.64,2.24 1.42,4.52 1.17,6.82 -0.36,3.22 -2.64,5.86 -3.83,8.87 -2.5,6.37 0.07,13.47 0.5,20.3 0.4,6.41 -1.13,12.76 -2.36,19.06 a 203.26,203.26 0 0 0 -3.6,31.87 96.14,96.14 0 0 1 -0.79,12.13 c -0.9,5.68 -3,11.15 -3.4,16.88 -0.57,8.92 3.2,17.67 2.86,26.61 -0.4,10.49 -6.44,20.69 -4.33,31 0.3,1.45 1.11,3.16 2.6,3.18 15.08,0.19 29.17,-4 44.09,-1.81 1.52,-34.52 3,-69.2 9.8,-103.09 6,-30.17 16.17,-60 15.22,-90.76 -0.55,-17.59 -4.73,-34.84 -7.27,-52.26 a 68.75,68.75 0 0 0 -47.06,6.35 z"
         transform="translate(-59,-87.5)"
         opacity="0.1"
         id="path10379" />
      <path
         d="m 505.47,763.05 a 20.77,20.77 0 0 0 2,2.51 10.06,10.06 0 0 0 3.81,1.83 l 10.48,3.33 c 3.89,1.24 8.21,2.84 9.86,6.56 1.86,4.2 -0.79,9.31 -4.71,11.7 -3.92,2.39 -8.72,2.74 -13.31,2.92 a 313.13,313.13 0 0 1 -76.59,-6.49 4,4 0 0 1 -1.47,-0.52 c -2,-1.35 -0.29,-4.37 1.44,-6 6.75,-6.4 14.09,-13.11 23.28,-14.59 4.83,-0.79 9.68,-0.47 14.48,-1.62 3.45,-0.83 6.71,-2.26 10.15,-3.11 6.41,-1.57 16,-2.13 20.58,3.48 z"
         transform="translate(-59,-87.5)"
         fill="#46455b"
         id="path10381" />
      <path
         d="m 444.05,522.86 c -3.86,5 -5,11.6 -4.48,17.86 0.52,6.26 2.63,12.27 4.7,18.2 -2.75,2.53 -2.18,6.89 -1.82,10.61 1.31,13.82 -3.49,27.61 -2.79,41.47 0.29,5.83 1.56,11.58 1.86,17.41 0.33,6.37 -0.48,12.74 -1.24,19.07 a 1137.66,1137.66 0 0 0 -8,122.09 c 0,3.76 -0.06,7.58 1,11.18 7.27,5.35 16.4,6.07 25.2,4.07 8.8,-2 16.83,-6.46 24.72,-10.86 a 76.33,76.33 0 0 0 12.24,-7.9 6.53,6.53 0 0 0 2.46,-3.38 c 0.84,-4 -4.72,-5.81 -7.91,-8.4 -4.64,-3.77 -4.57,-10.75 -4.09,-16.71 l 2.9,-36.16 c 0.66,-8.19 1.3,-16.54 -0.56,-24.54 -0.76,-3.24 -1.93,-6.57 -1.23,-9.83 1.14,-5.3 6.62,-8.26 10.35,-12.21 5.64,-6 7.38,-14.51 8.68,-22.61 A 467.34,467.34 0 0 0 509.92,516 c -7.35,2.55 -16.06,1.16 -23.81,1.76 -7.75,0.6 -15.45,3.19 -23.3,3.4 -6.54,0.15 -14.74,-3.46 -18.76,1.7 z"
         transform="translate(-59,-87.5)"
         fill="#bbbdc8"
         id="path10383" />
      <circle
         cx="438"
         cy="220"
         r="37"
         fill="#a1616a"
         id="circle10385" />
      <path
         d="M 517.91,368.36 A 199.13,199.13 0 0 0 481,355.62 c -8.94,-2.13 -19.15,-3.41 -26.62,1.94 -2,1.43 -3.81,3.68 -3.38,6.1 a 5.56,5.56 0 0 1 5.33,4.84 c 0.22,2.12 -0.82,4.15 -1.84,6 l -8.63,16 a 62.53,62.53 0 0 0 -4.25,9 c -1.74,5.08 -2.12,10.52 -2.49,15.88 l -1,14.52 c -0.62,9.15 -1.25,18.34 -0.42,27.47 0.62,6.89 2.06,13.81 1.08,20.66 -0.79,5.51 -3.12,10.68 -4.43,16.1 -2.46,10.2 -1.34,21.38 -6.11,30.74 a 9.26,9.26 0 0 1 6.19,-0.56 c 14.48,2.67 25.87,14.1 39.93,18.47 3.55,-5.18 8.36,-9 12.33,-13.82 a 26.72,26.72 0 0 0 5.67,-12.54 c 3,4 5.55,7.12 7.34,11.76 a 7.9,7.9 0 0 0 1.6,2.93 c 1.89,1.84 5,1.13 7.53,0.36 A 155.2,155.2 0 0 1 547,525 c 2.08,-0.09 3.09,-1.09 3.74,-3.07 0.65,-1.98 0.29,-4.12 -0.1,-6.16 -2.49,-13.33 -5.27,-26.68 -5.73,-40.23 -0.28,-8 0.27,-16.11 -0.74,-24.09 -0.5,-3.91 -1.37,-7.76 -2.23,-11.6 l -7.14,-31.73 c -0.4,-1.77 -2.3,-2.93 -3.11,-4.56 -3.28,-6.64 -9.55,-11.44 -12.79,-18.1 a 23.73,23.73 0 0 1 -0.99,-17.1 z"
         transform="translate(-59,-87.5)"
         fill="#46455b"
         id="path10387" />
      <path
         d="m 466,322.31 a 2.45,2.45 0 0 1 0.35,-1.48 3.34,3.34 0 0 1 1.44,-0.89 7.59,7.59 0 0 0 4.23,-8.11 l 3.5,-0.73 0.11,-12.19 c 5.2,-2.88 12.29,-0.7 17.18,-4.09 2.75,-1.92 4.16,-5.18 5.84,-8.08 1.68,-2.9 4.18,-5.82 7.52,-6.06 a 21.42,21.42 0 0 0 1.15,18.13 20.65,20.65 0 0 0 8.43,-7.88 l 1.74,10 a 2.48,2.48 0 0 0 0.74,1.63 c 0.91,0.67 2.14,-0.17 2.94,-1 l 4.53,-4.45 a 62.36,62.36 0 0 1 3.89,14.89 c 7.44,-7.22 9.75,-18.82 6.89,-28.78 -2.86,-9.96 -10.35,-18.21 -19.37,-23.3 -9.02,-5.09 -19.48,-7.23 -29.83,-7.61 a 42.42,42.42 0 0 0 -10.38,0.67 49.28,49.28 0 0 0 -10.58,4 c -5.17,2.43 -10.39,5.1 -14.25,9.3 -6.72,7.32 -8.23,18.08 -7.49,28 1,13 5.22,25.55 10.13,37.63 1.63,4 3.37,8.05 6.06,11.46 4.05,5.13 14,0.87 12.73,-9.27 -0.88,-7.24 -7.5,-4.45 -7.5,-11.79 z"
         transform="translate(-59,-87.5)"
         fill="#3f3d56"
         id="path10389" />
      <path
         d="M 480,520.4 A 156.9,156.9 0 0 1 424.55,583 c -7.19,4.65 -15,8.79 -23.41,10.15 -1.15,0.19 -2.3,0.32 -3.47,0.4 A 25.9,25.9 0 0 1 385,591.4 a 32,32 0 0 1 -7.24,-5 70.31,70.31 0 0 1 -18.11,-24.73 139.25,139.25 0 0 1 -6.05,-18.28 q -3.68,-13.06 -7.34,-26.13 c -2.39,-8.52 -4.8,-17.14 -5.3,-26 -0.81,-14.39 3.51,-28.64 9.58,-41.71 a 34.4,34.4 0 0 0 2.49,-6.3 c 0,-0.15 0.07,-0.3 0.1,-0.46 0.72,-3.45 0.35,-7.06 1,-10.54 1.22,-7 6.38,-12.8 12.44,-16.49 6.06,-3.69 13,-5.58 19.89,-7.42 l 10.73,-2.89 6.66,-1.79 27.09,-7.29 c 3.75,-1 7.54,-2.33 11.35,-3 4.25,-0.8 4.22,-0.38 4.55,3.78 0.61,7.54 0.41,14.95 2,22.42 1.51,7.13 4.17,14 6.17,21 5.05,17.67 5.89,36.27 9.87,54.22 0.91,4.09 2.17,8.45 5.46,11 3.77,3 10.12,3.74 11.12,8.44 0.37,2.09 -0.56,4.23 -1.46,6.17 z"
         transform="translate(-59,-87.5)"
         fill="#00b0ff"
         id="path10391" />
      <path
         d="m 401.14,593.11 c -1.15,0.19 -2.3,0.32 -3.47,0.4 A 25.9,25.9 0 0 1 385,591.4 a 32,32 0 0 1 -7.24,-5 70.31,70.31 0 0 1 -18.11,-24.73 139.25,139.25 0 0 1 -6.05,-18.28 q -3.68,-13.06 -7.34,-26.13 c -2.39,-8.52 -4.8,-17.14 -5.3,-26 -0.81,-14.39 3.51,-28.64 9.58,-41.71 a 34.4,34.4 0 0 0 2.49,-6.3 c 0,-0.15 0.07,-0.3 0.1,-0.46 16.32,2.87 35.9,34.09 46,75 7.44,30.59 7.76,58.76 2.01,75.32 z"
         transform="translate(-59,-87.5)"
         opacity="0.1"
         id="path10393" />
      <path
         d="m 430.64,485.47 -2.73,0.47 c -2.81,-7.38 -5.61,-14.77 -8.9,-21.95 -1.71,-3.75 -3.56,-7.45 -5,-11.32 -5.4,-14.86 -4.48,-32.49 -14.49,-44.73 a 15.31,15.31 0 0 0 -2.43,-2.46 l 6.66,-1.79 a 90.32,90.32 0 0 1 12.14,30.11 c 1.08,5.22 1.69,10.56 3.45,15.58 a 107.71,107.71 0 0 0 5.13,11.14 c 3.8,7.79 6.66,16.3 6.17,24.95 z"
         transform="translate(-59,-87.5)"
         opacity="0.1"
         id="path10395" />
      <path
         d="m 457.22,372.8 c 7.19,-6.16 17,-9.54 26.31,-8 5.48,0.89 10.57,3.36 15.48,6 9.57,5.08 19,10.93 25.9,19.28 a 77.29,77.29 0 0 1 10.22,17.2 41.7,41.7 0 0 1 3,8.41 c 2.44,11.3 -3.55,22.53 -9.32,32.55 l -11.1,19.26 c -5.1,8.85 -10.24,17.76 -16.88,25.53 -3.06,3.58 -6.42,6.89 -9.77,10.2 l -14.71,14.52 a 2.2,2.2 0 0 1 -1,0.67 2.22,2.22 0 0 1 -1.73,-0.69 l -4.86,-3.87 a 82.67,82.67 0 0 0 12.42,-10.53 c 6.36,-6.58 11.59,-14.15 16.79,-21.69 l 16.18,-23.46 c 4.73,-6.87 9.67,-14.43 9.14,-22.75 -0.25,-4 -1.75,-7.76 -3.32,-11.43 q -4.17,-9.79 -9.06,-19.27 c -3.66,-7.09 -7.66,-14.09 -12.93,-20.08 -5.27,-5.99 -11.93,-11 -19.6,-13.17 a 16.32,16.32 0 0 0 -7.1,-0.68 c -5.26,0.87 -9,5.39 -12.33,9.59 l -10.14,13 c -2.31,2.95 -4.43,6.37 -4.57,0.77 -0.24,-7.99 7.84,-16.22 12.98,-21.36 z"
         transform="translate(-59,-87.5)"
         fill="#00b0ff"
         id="path10397" />
      <path
         d="m 460.36,460.5 c 2,7.7 4.95,16.44 12.36,19.36 5.25,2.07 11.4,0.39 15.94,-3 4.54,-3.39 7.76,-8.17 10.72,-13 a 126.26,126.26 0 0 1 8.27,-12.54 c 5.93,-7.44 14,-13.34 18,-22 1.18,-2.58 2,-5.34 3.34,-7.82 a 48.87,48.87 0 0 1 4.84,-6.47 70.13,70.13 0 0 0 10.91,-18.94 c 0.92,-2.39 1.71,-4.95 1.35,-7.48 -0.71,-4.87 -5.32,-8.07 -9.61,-10.46 -2.61,-1.45 -5.34,-2.86 -8.31,-3.08 -4.34,-0.34 -8.61,2 -11.28,5.43 a 21.7,21.7 0 0 0 -4.12,12.17 c -0.3,5.33 0.74,10.87 -1,15.91 A 25,25 0 0 1 508,415.1 76.45,76.45 0 0 1 487.49,434.03 35.59,35.59 0 0 0 485.06,423 c -0.76,-1.94 -15.66,0 -17.6,0.32 -3.84,0.56 -11.28,1 -13.7,4.66 -2.42,3.66 0.58,9.81 1.56,13.5 z"
         transform="translate(-59,-87.5)"
         fill="#a1616a"
         id="path10399" />
      <path
         d="m 460,376.47 a 52.65,52.65 0 0 0 -6.16,6 c -4.44,5.35 -6.61,12.31 -7.17,19.24 -0.56,6.93 0.39,13.89 1.58,20.74 q 1.62,9.22 3.83,18.31 c 0.41,-4.57 4.11,-8.35 8.4,-10 4.29,-1.65 9,-1.47 13.57,-0.8 a 66.33,66.33 0 0 1 17.06,4.93 l 2.11,-29.57 a 51.52,51.52 0 0 0 -0.07,-12 26.45,26.45 0 0 0 -12.34,-17.95 c -8.02,-4.88 -13.61,-5.19 -20.81,1.1 z"
         transform="translate(-59,-87.5)"
         fill="#46455b"
         id="path10401" />
      <path
         d="m 837.78,520.36 a 69.83,69.83 0 0 0 -6.9,-23.05 c -2.21,-4.4 -4.9,-8.61 -6.29,-13.32 -1.13,-3.83 -1.35,-7.86 -2.25,-11.75 -0.9,-3.89 -2.49,-7.61 -3.77,-11.41 -9.05,-27 -2.25,-56.54 -5.17,-84.84 -1.09,-10.44 -4.29,-21.89 -13.34,-27.33 -5.38,-3.23 -11.84,-3.73 -18.17,-4 l -2.89,-0.13 -4.64,-0.23 c -6.72,-0.33 -13.46,-0.58 -20,0.83 -8,1.75 -17.48,7.38 -20,15.55 -1.38,-0.71 -2.77,-1.34 -4.05,-1.93 a 72.64,72.64 0 0 0 -16.09,-5 60.13,60.13 0 0 0 13.66,-5.28 c 10,-5.82 12.32,-22.82 14.36,-34.19 2.04,-11.37 0.18,-23.12 -3.21,-34.17 a 58.75,58.75 0 0 0 -4.55,-11.32 39.49,39.49 0 0 0 -56.16,-13.9 c -9.33,6.11 -18,15 -25.12,23.59 -1,1.18 -5.18,5.36 -3.79,7.12 0.78,1 3.35,0.2 6.05,-1 a 36.69,36.69 0 0 0 -3.14,14.9 37.12,37.12 0 0 0 18.23,31.92 l 1,9.2 v 0.07 c 0.11,3.07 0.16,6.14 0.2,9.2 0,2.15 0,4.35 -0.06,6.55 a 45.16,45.16 0 0 1 -14.92,11.1 c 4.7,0.78 9.18,-0.32 13.54,-2.2 a 19.3,19.3 0 0 1 -3.5,6.74 c 1.2,-0.42 2.4,-0.8 3.6,-1.2 a 26.19,26.19 0 0 0 -1.67,3.14 24.3,24.3 0 0 0 -1.61,5.34 75,75 0 0 0 -6.59,11.78 v 0 c -0.84,1.87 -1.59,3.77 -2.27,5.7 v 0.13 q -1,2.88 -1.77,5.84 v 0 q -0.36,1.42 -0.66,2.85 c 0,0.07 0,0.14 0,0.21 -0.4,1.93 -0.73,3.87 -1,5.83 0,0.13 0,0.26 0,0.4 -0.11,0.91 -0.21,1.83 -0.28,2.75 0,0 0,0.09 0,0.14 -0.08,1 -0.14,1.95 -0.17,2.93 0,0.13 0,0.25 0,0.38 0,0.83 0,1.67 0,2.5 v 0.57 c 0,1.88 0.12,3.77 0.3,5.66 0,0.23 0,0.47 0.07,0.7 0.08,0.77 0.17,1.54 0.28,2.32 0,0.18 0,0.36 0.07,0.53 0.13,0.93 0.28,1.85 0.45,2.77 0,0.2 0.09,0.41 0.13,0.61 0.14,0.74 0.29,1.47 0.46,2.21 l 0.18,0.76 c 0.22,0.92 0.45,1.83 0.71,2.75 0.15,0.52 0.3,1 0.46,1.55 a 39,39 0 0 1 1,5.77 l -5.47,0.18 q -17.56,0.5 -35.09,1.59 c -1.46,-5.63 -6.44,-8.88 -12.71,-9.65 a 25.08,25.08 0 0 0 -3,-0.18 v 0 a 16.65,16.65 0 0 0 2.86,-3.11 13.78,13.78 0 0 0 2.28,-5 13.69,13.69 0 0 0 -4.14,3.63 c -0.37,0.5 -0.7,1 -1,1.46 v -3 a 0.47,0.47 0 0 0 -0.48,-0.48 h -1 a 0.47,0.47 0 0 0 -0.48,0.48 v 6.11 h -0.2 -0.34 c -0.66,0.06 -1.3,0.14 -1.93,0.26 -6.81,1.27 -11.8,5.64 -11.8,13 a 16,16 0 0 0 5.64,12.18 35.07,35.07 0 0 0 1.55,6.74 c 0.69,2.17 1.59,4.53 3.61,5.61 a 8.25,8.25 0 0 0 3.94,0.72 c 11.12,0 21.64,-5.13 32.71,-6 6.84,-0.55 13.71,0.51 20.57,0.3 1,0 2,-0.1 3,-0.18 -9.38,46.45 -20.73,93.49 -14.8,140.41 0.39,3.12 1,6.5 3.33,8.62 3.09,2.82 7.85,2.36 12,2 a 100.3,100.3 0 0 1 33.95,2.71 10.31,10.31 0 0 0 4.78,0.17 8.86,8.86 0 0 0 1,-0.29 l 0.28,-0.11 c 0.21,-0.08 0.41,-0.16 0.6,-0.25 l 0.29,-0.15 0.49,-0.3 c 0.08,-0.06 0.17,-0.11 0.24,-0.17 a 3.88,3.88 0 0 0 0.49,-0.4 l 0.14,-0.12 a 7.13,7.13 0 0 0 0.53,-0.58 l 0.12,-0.18 a 4.87,4.87 0 0 0 0.32,-0.47 c 0.05,-0.08 0.1,-0.16 0.14,-0.24 0.04,-0.08 0.16,-0.3 0.23,-0.45 0.07,-0.15 0.08,-0.18 0.11,-0.27 0.03,-0.09 0.13,-0.33 0.19,-0.5 0.06,-0.17 0,-0.16 0.08,-0.25 0.08,-0.09 0.14,-0.5 0.19,-0.75 v -0.16 c 0,-0.21 0.08,-0.43 0.11,-0.64 0.03,-0.21 0,-0.22 0,-0.33 0,-0.11 0,-0.33 0,-0.49 v -0.36 c 0,-0.16 0,-0.32 0,-0.48 v -0.89 c 0,-0.1 0,-0.21 0,-0.32 v 0 c 0,-0.89 -0.1,-1.79 -0.19,-2.65 a 15.83,15.83 0 0 0 2.18,0.47 v 0 a 12.21,12.21 0 0 0 2.08,0.15 h 0.1 c 0.33,0 0.66,0 1,-0.08 v 0 a 8.2,8.2 0 0 0 0.86,-0.18 h 0.13 a 4.62,4.62 0 0 0 0.76,-0.3 l 0.12,-0.07 a 4.07,4.07 0 0 0 0.59,-0.4 l 0.09,-0.07 a 3.48,3.48 0 0 0 0.5,-0.58 l 0.09,-0.15 a 3.4,3.4 0 0 0 0.35,-0.77 c 0.57,-1.93 -0.73,-4.11 1.35,-5.88 2,6.41 4,12.83 4.33,19.46 0.11,2.42 0,5 1.42,7 a 29.36,29.36 0 0 0 3,3.06 c 3.06,3.31 3.13,8.3 2.92,12.78 -0.09,1.81 -0.19,3.62 -0.32,5.43 a 268.51,268.51 0 0 1 -14.6,70.81 38.16,38.16 0 0 1 -3.06,7 33.89,33.89 0 0 1 -7.51,8.26 95.27,95.27 0 0 1 -13.35,9.49 40.85,40.85 0 0 0 -6.79,4.51 c -0.08,-0.23 -0.17,-0.45 -0.23,-0.69 -0.11,-0.46 -0.26,-1 -0.71,-1.17 a 1.36,1.36 0 0 0 -1,0.16 c -4.69,2.06 -9.38,4.12 -13.89,6.53 a 16.21,16.21 0 0 0 -5.86,4.53 c -1.44,2 -1.87,5 -0.38,7 1.31,1.75 3.66,2.33 5.83,2.72 2.78,0.49 5.57,0.84 8.36,1.1 a 12.63,12.63 0 0 0 -3.69,3.28 c -1.44,2 -1.87,5 -0.38,7 1.31,1.75 3.66,2.33 5.83,2.72 17.73,3.13 35.91,1 53.91,0.47 5.85,-0.19 11.83,-0.23 17.37,-2.13 a 8.75,8.75 0 0 0 3,-1.57 c 2.52,-2.22 2.27,-6.12 1.83,-9.43 l -1.83,-13.52 c -0.27,0 -0.53,0.09 -0.79,0.15 a 199.82,199.82 0 0 1 8.21,-37.4 c 6.1,-18.95 15.18,-37.62 15.06,-57.45 0,-0.48 0,-1 0,-1.44 -0.17,-6.21 -1.28,-12.35 -2,-18.53 -1.13,-10.34 -1,-20.77 -0.93,-31.16 a 67,67 0 0 1 0.85,-12.17 c 0,-0.14 0.06,-0.27 0.09,-0.41 l 16.61,-0.44 a 11.71,11.71 0 0 0 5.36,-1 3.52,3.52 0 0 0 1.94,-4.29 c 7.08,3.21 16.55,-1.16 18.64,-8.6 a 15.09,15.09 0 0 0 0.35,-1.59 0.5,0.5 0 0 1 0,-0.12 c 0.07,-0.5 0.12,-1 0.14,-1.49 0,-0.08 0,-0.17 0,-0.25 v 0 A 27.88,27.88 0 0 0 808,574.42 c -3.4,-9.63 -8.8,-18.4 -13.88,-27.27 -2.62,-4.59 -5.16,-9.24 -7.63,-13.91 l 2.17,2.79 a 9.45,9.45 0 0 0 2.93,2.81 c 4.05,2.09 8.29,-2.12 12.41,-4.06 5.47,-2.58 11.87,-1.06 17.91,-0.63 6.04,0.43 13.32,-1.13 15.48,-6.73 a 14.76,14.76 0 0 0 0.39,-7.06 z M 733.65,370.07 c 0,2.14 0.14,4.31 0.31,6.49 a 60.64,60.64 0 0 0 -7,-9.3 z"
         transform="translate(-59,-87.5)"
         fill="url(#f59ba046-7ebe-407e-be3d-c62856fc1078)"
         id="path10403"
         style="fill:url(#f59ba046-7ebe-407e-be3d-c62856fc1078)" />
      <path
         d="m 603,436.26 a 13.68,13.68 0 0 1 4.09,-3.61 13.72,13.72 0 0 1 -2.25,5 c -1.74,2.37 -3.57,4 -4.08,3.61 -0.51,-0.39 0.48,-2.63 2.24,-5 z"
         transform="translate(-59,-87.5)"
         fill="#99d55c"
         id="path10405" />
      <path
         d="m 603.22,436.44 a 10.09,10.09 0 0 1 3,-2.69 10.25,10.25 0 0 1 -1.67,3.7 c -1.3,1.76 -2.66,3 -3,2.69 -0.34,-0.31 0.37,-1.94 1.67,-3.7 z"
         transform="translate(-59,-87.5)"
         opacity="0.1"
         id="path10407" />
      <path
         d="m 541.57,346.77 h 1 a 0.48,0.48 0 0 1 0.48,0.48 v 11.33 h -1.9 v -11.33 a 0.48,0.48 0 0 1 0.42,-0.48 z"
         fill="#f6987e"
         id="path10409" />
      <path
         d="m 618,454.08 a 16,16 0 0 1 -32,0 c 0,-7.33 4.93,-11.67 11.66,-12.94 a 23.51,23.51 0 0 1 4.34,-0.39 24.54,24.54 0 0 1 3,0.18 c 7.4,0.92 13,5.34 13,13.15 z"
         transform="translate(-59,-87.5)"
         fill="#fc4a4a"
         id="path10411" />
      <path
         d="m 605,440.93 c -0.29,0.55 -1.86,1 -3.76,1 a 6.63,6.63 0 0 1 -3.58,-0.75 23.51,23.51 0 0 1 4.34,-0.39 24.54,24.54 0 0 1 3,0.14 z"
         transform="translate(-59,-87.5)"
         opacity="0.1"
         id="path10413" />
      <path
         d="m 604.67,469.7 a 16,16 0 0 1 -16,-16 c 0,-7.2 4.75,-11.51 11.29,-12.86 a 21.57,21.57 0 0 0 -2.3,0.3 c -6.73,1.27 -11.66,5.61 -11.66,12.94 a 16,16 0 0 0 16,16 15.68,15.68 0 0 0 3.59,-0.41 c -0.31,0.02 -0.59,0.03 -0.92,0.03 z"
         transform="translate(-59,-87.5)"
         opacity="0.1"
         id="path10415" />
      <path
         d="m 675.2,765.85 c 2.21,2 5.59,1.95 8.59,1.73 l 13.67,-1 c 10.86,-0.8 22.09,-1.7 31.67,-6.87 a 7.53,7.53 0 0 0 2.63,-2 8.47,8.47 0 0 0 1.15,-4.31 199.59,199.59 0 0 1 8.78,-43.59 c 6,-18.85 15,-37.43 14.88,-57.16 0,-0.48 0,-1 0,-1.43 -0.17,-6.18 -1.26,-12.29 -1.93,-18.44 -1.11,-10.29 -1,-20.66 -0.92,-31 a 67.27,67.27 0 0 1 0.84,-12.11 c 0.63,-3.25 3,-6.51 1.55,-9.37 -2.81,-5.55 -13,-7.59 -18.48,-7.79 -7.38,-0.26 -14.64,1.67 -21.77,3.59 -2.17,0.59 -4.44,1.22 -6.08,2.75 -2.2,2.06 -2.83,5.29 -2.91,8.3 -0.38,13.35 7.31,25.77 7.92,39.1 0.11,2.4 0,5 1.4,7 a 29,29 0 0 0 3,3.05 c 3,3.29 3.09,8.25 2.88,12.71 -0.09,1.8 -0.19,3.6 -0.31,5.4 a 268.86,268.86 0 0 1 -14.43,70.45 38.42,38.42 0 0 1 -3,7 33.92,33.92 0 0 1 -7.42,8.22 94.83,94.83 0 0 1 -13.19,9.44 c -3.11,1.84 -6.43,3.6 -8.56,6.52 -2.13,2.92 -2.6,7.35 0.04,9.81 z"
         transform="translate(-59,-87.5)"
         fill="#fda8a8"
         id="path10417" />
      <path
         d="m 675.2,765.85 c 2.21,2 5.59,1.95 8.59,1.73 l 13.67,-1 c 10.86,-0.8 22.09,-1.7 31.67,-6.87 a 7.53,7.53 0 0 0 2.63,-2 8.47,8.47 0 0 0 1.15,-4.31 199.59,199.59 0 0 1 8.78,-43.59 c 6,-18.85 15,-37.43 14.88,-57.16 0,-0.48 0,-1 0,-1.43 -0.17,-6.18 -1.26,-12.29 -1.93,-18.44 -1.11,-10.29 -1,-20.66 -0.92,-31 a 67.27,67.27 0 0 1 0.84,-12.11 c 0.63,-3.25 3,-6.51 1.55,-9.37 -2.81,-5.55 -13,-7.59 -18.48,-7.79 -7.38,-0.26 -14.64,1.67 -21.77,3.59 -2.17,0.59 -4.44,1.22 -6.08,2.75 -2.2,2.06 -2.83,5.29 -2.91,8.3 -0.38,13.35 7.31,25.77 7.92,39.1 0.11,2.4 0,5 1.4,7 a 29,29 0 0 0 3,3.05 c 3,3.29 3.09,8.25 2.88,12.71 -0.09,1.8 -0.19,3.6 -0.31,5.4 a 268.86,268.86 0 0 1 -14.43,70.45 38.42,38.42 0 0 1 -3,7 33.92,33.92 0 0 1 -7.42,8.22 94.83,94.83 0 0 1 -13.19,9.44 c -3.11,1.84 -6.43,3.6 -8.56,6.52 -2.13,2.92 -2.6,7.35 0.04,9.81 z"
         transform="translate(-59,-87.5)"
         opacity="0.1"
         id="path10419" />
      <path
         d="m 675.2,765.85 c 2.21,2 5.59,1.95 8.59,1.73 l 13.67,-1 c 10.86,-0.8 22.09,-1.7 31.67,-6.87 a 7.53,7.53 0 0 0 2.63,-2 8.47,8.47 0 0 0 1.15,-4.31 199.59,199.59 0 0 1 8.78,-43.59 c 6,-18.85 15,-37.43 14.88,-57.16 a 287,287 0 0 1 -34.81,1.72 268.86,268.86 0 0 1 -14.43,70.45 38.42,38.42 0 0 1 -3,7 33.92,33.92 0 0 1 -7.42,8.22 94.83,94.83 0 0 1 -13.19,9.44 c -3.11,1.84 -6.43,3.6 -8.56,6.52 -2.13,2.92 -2.6,7.39 0.04,9.85 z"
         transform="translate(-59,-87.5)"
         fill="#eeeff3"
         id="path10421" />
      <path
         d="m 675.2,765.85 c 2.21,2 5.59,1.95 8.59,1.73 l 13.67,-1 c 10.86,-0.8 22.09,-1.7 31.67,-6.87 a 7.53,7.53 0 0 0 2.63,-2 8.47,8.47 0 0 0 1.15,-4.31 199.59,199.59 0 0 1 8.78,-43.59 c 6,-18.85 15,-37.43 14.88,-57.16 a 287,287 0 0 1 -34.81,1.72 268.86,268.86 0 0 1 -14.43,70.45 38.42,38.42 0 0 1 -3,7 33.92,33.92 0 0 1 -7.42,8.22 94.83,94.83 0 0 1 -13.19,9.44 c -3.11,1.84 -6.43,3.6 -8.56,6.52 -2.13,2.92 -2.6,7.39 0.04,9.85 z"
         transform="translate(-59,-87.5)"
         opacity="0.1"
         id="path10423" />
      <path
         d="m 705.4,761.63 a 51.5,51.5 0 0 0 9.42,-4.5 l 15.07,-8.5 a 12.77,12.77 0 0 1 4.47,-1.81 l 1.8,13.45 c 0.45,3.3 0.69,7.18 -1.8,9.39 a 8.76,8.76 0 0 1 -3,1.56 c -5.47,1.89 -11.37,1.93 -17.16,2.11 -17.78,0.57 -35.74,2.65 -53.26,-0.47 -2.14,-0.38 -4.46,-1 -5.75,-2.7 -1.47,-2 -1.05,-4.9 0.37,-6.93 a 16.08,16.08 0 0 1 5.79,-4.51 c 4.46,-2.4 9.09,-4.44 13.72,-6.49 a 1.34,1.34 0 0 1 0.95,-0.16 c 0.45,0.15 0.59,0.7 0.71,1.16 0.81,3.28 3.45,5.87 6.46,7.42 0.04,0 15.55,3.1 22.21,0.98 z"
         transform="translate(-59,-87.5)"
         fill="#bbbdc8"
         id="path10425" />
      <path
         d="m 705.4,761.63 a 51.5,51.5 0 0 0 9.42,-4.5 l 15.07,-8.5 a 12.77,12.77 0 0 1 4.47,-1.81 l 1.8,13.45 c 0.45,3.3 0.69,7.18 -1.8,9.39 a 8.76,8.76 0 0 1 -3,1.56 c -5.47,1.89 -11.37,1.93 -17.16,2.11 -17.78,0.57 -35.74,2.65 -53.26,-0.47 -2.14,-0.38 -4.46,-1 -5.75,-2.7 -1.47,-2 -1.05,-4.9 0.37,-6.93 a 16.08,16.08 0 0 1 5.79,-4.51 c 4.46,-2.4 9.09,-4.44 13.72,-6.49 a 1.34,1.34 0 0 1 0.95,-0.16 c 0.45,0.15 0.59,0.7 0.71,1.16 0.81,3.28 3.45,5.87 6.46,7.42 0.04,0 15.55,3.1 22.21,0.98 z"
         transform="translate(-59,-87.5)"
         opacity="0.1"
         id="path10427" />
      <path
         d="m 685.2,779.85 c 2.21,2 5.59,1.95 8.59,1.73 l 13.67,-1 c 10.86,-0.8 22.09,-1.7 31.67,-6.87 a 7.53,7.53 0 0 0 2.63,-2 8.47,8.47 0 0 0 1.15,-4.31 199.59,199.59 0 0 1 8.78,-43.59 c 6,-18.85 15,-37.43 14.88,-57.16 0,-0.48 0,-1 0,-1.43 -0.17,-6.18 -1.26,-12.29 -1.93,-18.44 -1.11,-10.29 -1,-20.66 -0.92,-31 a 67.27,67.27 0 0 1 0.84,-12.11 c 0.63,-3.25 3,-6.51 1.55,-9.37 -2.81,-5.55 -13,-7.59 -18.48,-7.79 -7.38,-0.26 -14.64,1.67 -21.77,3.59 -2.17,0.59 -4.44,1.22 -6.08,2.75 -2.2,2.06 -2.83,5.29 -2.91,8.3 -0.38,13.35 7.31,25.77 7.92,39.1 0.11,2.4 0,5 1.4,7 a 29,29 0 0 0 3,3.05 c 3,3.29 3.09,8.25 2.88,12.71 -0.09,1.8 -0.19,3.6 -0.31,5.4 a 268.86,268.86 0 0 1 -14.43,70.45 38.42,38.42 0 0 1 -3,7 33.92,33.92 0 0 1 -7.42,8.22 94.83,94.83 0 0 1 -13.19,9.44 c -3.11,1.84 -6.43,3.6 -8.56,6.52 -2.13,2.92 -2.6,7.35 0.04,9.81 z"
         transform="translate(-59,-87.5)"
         fill="#fda8a8"
         id="path10429" />
      <path
         d="m 685.2,779.85 c 2.21,2 5.59,1.95 8.59,1.73 l 13.67,-1 c 10.86,-0.8 22.09,-1.7 31.67,-6.87 a 7.53,7.53 0 0 0 2.63,-2 8.47,8.47 0 0 0 1.15,-4.31 199.59,199.59 0 0 1 8.78,-43.59 c 6,-18.85 15,-37.43 14.88,-57.16 a 287,287 0 0 1 -34.81,1.72 268.86,268.86 0 0 1 -14.43,70.45 38.42,38.42 0 0 1 -3,7 33.92,33.92 0 0 1 -7.42,8.22 94.83,94.83 0 0 1 -13.19,9.44 c -3.11,1.84 -6.43,3.6 -8.56,6.52 -2.13,2.92 -2.6,7.39 0.04,9.85 z"
         transform="translate(-59,-87.5)"
         fill="#eeeff3"
         id="path10431" />
      <path
         d="m 715.4,775.63 a 51.5,51.5 0 0 0 9.42,-4.5 l 15.07,-8.5 a 12.77,12.77 0 0 1 4.47,-1.81 l 1.8,13.45 c 0.45,3.3 0.69,7.18 -1.8,9.39 a 8.76,8.76 0 0 1 -3,1.56 c -5.47,1.89 -11.37,1.93 -17.16,2.11 -17.78,0.57 -35.74,2.65 -53.26,-0.47 -2.14,-0.38 -4.46,-1 -5.75,-2.7 -1.47,-2 -1.05,-4.9 0.37,-6.93 a 16.08,16.08 0 0 1 5.79,-4.51 c 4.46,-2.4 9.09,-4.44 13.72,-6.49 a 1.34,1.34 0 0 1 0.95,-0.16 c 0.45,0.15 0.59,0.7 0.71,1.16 0.81,3.28 3.45,5.87 6.46,7.42 0.04,0 15.55,3.1 22.21,0.98 z"
         transform="translate(-59,-87.5)"
         fill="#bbbdc8"
         id="path10433" />
      <path
         d="m 665.81,374.21 c 4.87,-6 5,-14.38 4.88,-22.08 0,-3 -0.09,-6.1 -0.2,-9.15 v -0.07 a 103.15,103.15 0 0 0 -1.77,-16.7 v 0 a 60.69,60.69 0 0 0 -2.1,-7.8 c 0.66,-0.15 1.32,-0.29 2,-0.41 a 81.94,81.94 0 0 1 31.75,0 c 1.81,0.36 6.39,0.28 9,1.17 a 3,3 0 0 1 1.81,1.27 c 0.51,1.07 -0.54,4.17 -1.3,6.92 v 0 a 13.52,13.52 0 0 0 -0.7,3.84 26.37,26.37 0 0 0 0.56,3.65 c 0.47,2.21 1.09,4.4 1.38,6.64 0.51,3.82 0.06,7.71 0.31,11.56 0.25,3.85 1.36,7.9 4.29,10.41 a 202.14,202.14 0 0 0 -49.91,10.75 z"
         transform="translate(-59,-87.5)"
         fill="#fda8a8"
         id="path10435" />
      <path
         d="m 713.73,334.41 c -1.33,0.11 -2.65,0.24 -4,0.39 a 201.48,201.48 0 0 0 -39.24,8.2 v -0.07 l -1.77,-16.7 v 0 c 0,-1 0,-2 0,-3.05 0,-1.71 -0.05,-3.44 -0.09,-5.16 a 81.94,81.94 0 0 1 31.75,0 c 1.81,0.36 6.39,0.28 9,1.17 0,1.63 0,3.26 0.06,4.89 a 21.81,21.81 0 0 0 0.45,3.3 v 0 a 12.56,12.56 0 0 0 3.84,7.03 z"
         transform="translate(-59,-87.5)"
         opacity="0.1"
         id="path10437" />
      <circle
         cx="629.5"
         cy="214.5"
         r="37"
         fill="#fda8a8"
         id="circle10439" />
      <path
         d="m 656,441.51 c -6.57,-23.25 -0.57,-48.22 15.12,-66.58 3.49,-4.09 7,-8.29 11.58,-10.74 5.45,-2.9 11.9,-3 18.07,-3.06 5.45,0 11.07,0 16.08,2.17 6.77,2.89 11.44,9.17 15.38,15.4 4.2,6.64 8,13.83 8.64,21.67 0.34,4.65 -0.48,9.37 0.21,14 0.88,5.87 4.15,11.13 5.49,16.91 0.73,3.12 0.88,6.35 1.35,9.53 a 89.24,89.24 0 0 0 3.08,12.84 460.75,460.75 0 0 0 40.56,94.72 c 5,8.83 10.35,17.56 13.71,27.13 1.52,4.33 2.62,9 1.38,13.46 -2.07,7.4 -11.42,11.75 -18.41,8.56 a 3.51,3.51 0 0 1 -1.92,4.26 11.46,11.46 0 0 1 -5.3,1 l -61.76,1.64 a 22.28,22.28 0 0 0 -4.81,0.65 c -7.26,1.86 -4.53,5 -5.31,7.62 -0.95,3.2 -5.54,2.94 -8.74,2 0.49,4.67 0.6,10.38 -5.43,11.74 a 10.19,10.19 0 0 1 -4.72,-0.16 98.42,98.42 0 0 0 -33.54,-2.7 c -4.12,0.38 -8.83,0.84 -11.88,-2 -2.3,-2.11 -2.9,-5.47 -3.29,-8.57 -6.15,-49 6.5,-98.07 16,-146.48 1.28,-6.53 0.82,-17.11 -1.1,-23.49 z"
         transform="translate(-59,-87.5)"
         fill="#f75842"
         id="path10441" />
      <path
         d="m 738,407.74 c 1.45,4.18 3.26,8.29 3.75,12.69 0.39,3.52 -0.08,7.08 0.13,10.61 a 54.38,54.38 0 0 0 2.41,11.53 182.39,182.39 0 0 0 7.11,21.43 c 1.34,3.15 2.89,6.62 1.81,9.87 -1.08,3.25 -4.43,5.26 -5.39,8.49 -1,3.41 1,7 3.55,9.49 2.55,2.49 5.74,4.26 8.1,6.91 2.57,2.89 4,6.58 5.81,10 a 92.52,92.52 0 0 0 8.81,12.85 l 12.09,15.69 a 9.44,9.44 0 0 0 2.9,2.8 c 4,2.08 8.19,-2.11 12.26,-4 5.4,-2.57 11.72,-1.06 17.69,-0.63 5.97,0.43 13.16,-1.12 15.29,-6.7 a 14.72,14.72 0 0 0 0.43,-7 69.74,69.74 0 0 0 -6.82,-22.93 c -2.18,-4.38 -4.84,-8.57 -6.21,-13.26 -1.12,-3.81 -1.34,-7.82 -2.23,-11.69 -0.89,-3.87 -2.46,-7.57 -3.72,-11.35 -8.94,-26.86 -2.22,-56.25 -5.11,-84.41 -1.07,-10.39 -4.24,-21.78 -13.18,-27.19 -5.31,-3.21 -11.69,-3.71 -18,-4 l -2.85,-0.13 -4.59,-0.23 c -6.64,-0.33 -13.3,-0.58 -19.77,0.83 -9.1,2 -20.05,9.07 -20.41,19.23 a 118.45,118.45 0 0 0 6.14,41.1 z"
         transform="translate(-59,-87.5)"
         fill="#00b0ff"
         id="path10443" />
      <path
         d="m 772.09,346.54 a 115.26,115.26 0 0 1 1.83,20.62 c 0.18,19.74 2.31,39.4 4.45,59 l 1.41,13 c 0.26,2.4 0.57,4.92 2,6.85 1.43,1.93 4.43,2.94 6.32,1.45 1.16,-4.59 0.93,-9.41 0.7,-14.14 q -0.75,-15.09 -1.49,-30.19 c -0.48,-9.8 -1,-19.61 -2.19,-29.35 A 194.15,194.15 0 0 0 781,351.37 26.45,26.45 0 0 0 779.57,346.9 l -2.85,-0.13 z"
         transform="translate(-59,-87.5)"
         opacity="0.1"
         id="path10445" />
      <path
         d="m 706.75,355 c -6.13,-0.88 -12.55,-1.33 -18.37,0.8 -5.56,2.05 -10,6.26 -14,10.69 a 37.16,37.16 0 0 0 -6.68,9.69 c -3.41,7.84 -2.08,16.88 0,25.18 5.67,22.86 16.93,44.91 35,60 a 130.36,130.36 0 0 0 17.51,12 c 8,4.69 16.26,9 25.11,11.71 2.47,0.76 5.1,1.4 7.63,0.86 2.53,-0.54 4.92,-2.59 5,-5.18 -14.5,-8.15 -27.5,-18.68 -40.41,-29.16 a 83.51,83.51 0 0 1 -9.91,-9 c -4.58,-5.15 -7.81,-11.37 -12.25,-16.64 -4,-4.73 -9,-8.72 -12,-14.13 a 37.7,37.7 0 0 1 -3.73,-11.78 c -1.48,-8.37 -1.76,-17.26 1.56,-25.09 3.32,-7.83 10.93,-14.26 19.43,-14.12 4.36,0.07 8.51,1.8 12.53,3.49 l 25.3,10.68 c -0.31,-0.14 1.45,-4.53 1.37,-5.14 -0.24,-1.91 -0.58,-1.94 -2,-3.39 -2.42,-2.42 -6.18,-4.12 -9.25,-5.53 A 79.14,79.14 0 0 0 706.75,355 Z"
         transform="translate(-59,-87.5)"
         fill="#00b0ff"
         id="path10447" />
      <path
         d="m 656.39,295 a 42.83,42.83 0 0 0 19.39,-10 l -5.29,27.76 a 136.49,136.49 0 0 0 15.3,-8.24 c 0.71,12.7 -0.32,25.69 -5,37.51 -4.68,11.82 -13.31,22.4 -24.89,27.65 10.28,1.72 19.51,-5.66 28.66,-10.65 6.38,-3.47 17.28,0.1 24.26,-2 5.92,-1.74 12,-3.26 17.34,-6.37 9.92,-5.79 12.17,-22.7 14.18,-34 2.01,-11.3 0.18,-23 -3.16,-34 A 59.83,59.83 0 0 0 732.69,271.4 38.86,38.86 0 0 0 677.2,257.58 c -9.22,6.07 -17.77,15 -24.81,23.47 -1,1.17 -5.13,5.33 -3.76,7.08 1.67,2.12 11.47,-3.92 13.13,-4.74 -0.48,1.81 -3.46,11.14 -5.37,11.61 z"
         transform="translate(-59,-87.5)"
         fill="#ffd566"
         id="path10449" />
      <g
         opacity="0.1"
         id="g10455">
        <path
           d="m 698,618.43 a 10.19,10.19 0 0 1 -4.72,-0.16 98.42,98.42 0 0 0 -33.54,-2.7 c -4.12,0.38 -8.83,0.84 -11.88,-2 -2.3,-2.11 -2.9,-5.47 -3.29,-8.57 -6.15,-49 6.5,-98.07 16,-146.48 1.28,-6.53 0.82,-17.11 -1.1,-23.49 l -0.45,-1.55 a 70.85,70.85 0 0 1 0.63,-40.33 71.39,71.39 0 0 0 -3.65,48.36 l 0.45,1.55 c 1.92,6.38 2.38,17 1.1,23.49 -9.47,48.41 -22.12,97.51 -16,146.48 0.39,3.1 1,6.46 3.29,8.57 3,2.81 7.76,2.35 11.88,2 a 98.42,98.42 0 0 1 33.54,2.7 10.19,10.19 0 0 0 4.72,0.16 c 4.92,-1.11 5.75,-5.12 5.63,-9.09 a 7.83,7.83 0 0 1 -2.61,1.06 z"
           transform="translate(-59,-87.5)"
           id="path10451" />
        <path
           d="m 791.26,589.52 a 3.51,3.51 0 0 1 -1.92,4.26 11.46,11.46 0 0 1 -5.3,1 l -61.76,1.64 a 22.28,22.28 0 0 0 -4.81,0.65 c -7.26,1.86 -4.53,5 -5.31,7.62 -0.95,3.2 -5.54,2.94 -8.74,2 0.3,2.85 0.45,6.08 -0.84,8.48 2.81,0.42 5.83,0.05 6.58,-2.48 0.75,-2.53 -1.95,-5.76 5.31,-7.62 a 22.28,22.28 0 0 1 4.81,-0.65 L 781,602.78 a 11.46,11.46 0 0 0 5.3,-1 3.51,3.51 0 0 0 1.92,-4.26 c 7,3.19 16.34,-1.16 18.41,-8.56 a 14.39,14.39 0 0 0 0.52,-3.44 c -3.74,4.48 -10.51,6.48 -15.89,4 z"
           transform="translate(-59,-87.5)"
           id="path10453" />
      </g>
      <path
         d="m 708.41,380.56 a 345.92,345.92 0 0 1 14.07,34.67 c 3.28,9.51 6.17,19.5 5.08,29.5 -1.09,10 -7,20.1 -16.6,23.25 -4.08,1.34 -8.45,1.35 -12.74,1.45 a 269.87,269.87 0 0 0 -30.71,2.48 135.24,135.24 0 0 1 -14.31,1.59 c -6.78,0.22 -13.56,-0.84 -20.32,-0.29 -10.94,0.89 -21.33,6 -32.31,6 a 8.2,8.2 0 0 1 -3.9,-0.72 c -2,-1.08 -2.89,-3.42 -3.57,-5.58 -1.53,-4.88 -2.73,-10.48 -0.14,-14.89 3.19,-5.43 10.44,-6.52 16.73,-7 q 21.24,-1.5 42.53,-2.1 c 12.11,-0.34 25.23,-0.8 34.62,-8.46 a 4.94,4.94 0 0 0 1.51,-1.74 5.55,5.55 0 0 0 -0.12,-3.57 155.52,155.52 0 0 1 -4.74,-44.55 6.6,6.6 0 0 1 1,-3.82 6.27,6.27 0 0 1 3.17,-1.84 46.41,46.41 0 0 1 25.88,-0.72"
         transform="translate(-59,-87.5)"
         fill="#fda8a8"
         id="path10457" />
      <path
         d="m 683.24,390.59 a 7.51,7.51 0 0 0 -3.62,2.67 c 0.4,-4.17 -0.14,-8.38 -0.06,-12.58 0.08,-4.2 0.86,-8.58 3.51,-11.84 3.37,-4.16 9.1,-5.65 14.46,-5.79 7.78,-0.21 15.83,2.05 21.53,7.35 a 22,22 0 0 1 6.75,13 c 0.18,1.37 0.78,6.51 -0.65,7.39 -1.25,0.78 -6,-1.91 -7.53,-2.34 a 50.52,50.52 0 0 0 -34.39,2.14 z"
         transform="translate(-59,-87.5)"
         fill="#f75842"
         id="path10459" />
      <circle
         cx="473"
         cy="60"
         r="7"
         fill="#00b0ff"
         opacity="0.1"
         id="circle10461" />
      <circle
         cx="520"
         cy="195"
         r="7"
         fill="#00b0ff"
         opacity="0.1"
         id="circle10463" />
      <circle
         cx="387"
         cy="67"
         r="7"
         fill="#00b0ff"
         opacity="0.1"
         id="circle10465" />
      <circle
         cx="172"
         cy="386"
         r="18"
         fill="#00b0ff"
         opacity="0.1"
         id="circle10467" />
      <circle
         cx="897"
         cy="100"
         r="7"
         fill="#00b0ff"
         opacity="0.1"
         id="circle10469" />
      <circle
         cx="905"
         cy="195"
         r="23"
         fill="#00b0ff"
         opacity="0.1"
         id="circle10471" />
      <circle
         cx="942"
         cy="130"
         r="7"
         fill="#00b0ff"
         opacity="0.1"
         id="circle10473" />
      <circle
         cx="880"
         cy="258"
         r="7"
         fill="#00b0ff"
         opacity="0.1"
         id="circle10475" />
      <circle
         cx="459"
         cy="116"
         r="7"
         fill="#00b0ff"
         opacity="0.1"
         id="circle10477" />
      <circle
         cx="197"
         cy="470"
         r="7"
         fill="#00b0ff"
         opacity="0.1"
         id="circle10479" />
      <circle
         cx="186"
         cy="310"
         r="7"
         fill="#00b0ff"
         opacity="0.1"
         id="circle10481" />
      <circle
         cx="570"
         cy="53"
         r="7"
         fill="#00b0ff"
         opacity="0.1"
         id="circle10483" />
      <circle
         cx="593"
         cy="116"
         r="7"
         fill="#00b0ff"
         opacity="0.1"
         id="circle10485" />
    </g>
  </g>
</svg>
